# xmcd CD database file
#
# Track frame offsets:
#	187
#	14635
#	30050
#	61092
#	79252
#	98272
#	125730
#	145562
#
# Disc length: 2277 seconds
#
# Revision: 3
# Processed by: cddbd v1.4PL0 Copyright (c) Steve Scherf et al.
# Submitted via: CDex 1.50
#
DISCID=5508e308
DTITLE=Paul Desmond - Take Ten
DYEAR=1963
DGENRE=Jazz
TTITLE0=Take Ten
TTITLE1=El Prince
TTITLE2=Alone Together
TTITLE3=Embarcadero
TTITLE4=The theme from Black Orpheus
TTITLE5=Nancy
TTITLE6=Samba de Orpheu
TTITLE7=The One I Love
EXTD=Digitally Mastered Nov 3, 1992\nat BMG Studios, NYC\nEngineer - Jay Newland\nProducer Paul Avakian\n\nPaul Desmond - Alto\nJim Hall - Guitar\nGene Cherico - Bass\nConnie Kay - Drums\nGene Wright replaces Gene Chirico in Take Ten YEAR: 1963
EXTT0=
EXTT1=
EXTT2=
EXTT3=
EXTT4=
EXTT5=
EXTT6=
EXTT7=
PLAYORDER=
